<svg xmlns="http://www.w3.org/2000/svg" viewBox="0 0 1200 630">
  <rect width="1200" height="630" fill="#0A0A0A"/>
  <g transform="translate(241.754 365.000) scale(0.256410 -0.256410)" fill="#2563EB">
    <path d="M469 195Q469 109 403.5 48.5Q338 -12 246 -12Q192 -12 117 21Q97 30 87 30Q75 30 72 1Q71 -14 59 -14Q49 -14 49 -2Q49 6 50 10Q58 71 58 123Q58 133 56 179Q55 185 55 195Q55 210 67 210Q77 210 81 186Q107 8 250 8Q311 8 344.5 42.5Q378 77 378 140Q378 196 345.5 235.5Q313 275 234 314Q139 361 102.0 405.0Q65 449 65 514Q65 597 118.5 651.0Q172 705 254 705Q288 705 348 682Q369 674 379 674Q390 674 393.5 678.0Q397 682 400 699Q402 709 411 709Q421 709 421 697Q421 689 420 685Q417 661 417 627Q417 579 422 551L423 535Q424 524 414 524Q403 524 399 547Q388 606 347.0 645.5Q306 685 255 685Q205 685 175.5 653.0Q146 621 146 566Q146 502 189 463Q213 441 293 401Q387 354 428.0 305.5Q469 257 469 195Z"/>
    <path transform="translate(526.08 0)" d="M571 517Q571 504 559 504Q547 504 542 530Q540 548 538 566Q531 602 515 627Q494 660 446 669Q415 675 396 674Q349 672 339 671V68Q339 32 358 23Q368 18 414 17Q426 16 426 8Q426 -1 410 -1Q402 -1 396 0Q336 2 311 2Q278 2 249.0 1.0Q220 0 175 0Q152 0 152 8Q152 17 195 18Q226 18 235 31Q240 39 240 72V671Q141 670 117 661Q54 638 43 538Q40 508 29 508Q17 508 17 529Q17 540 18 551L20 574Q23 620 29 695H74L278 692Q314 691 390 693L556 696Q558 640 569 530Q569 527 570.0 522.5Q571 518 571 517Z"/>
    <path transform="translate(1140.16 0)" d="M288 8Q288 0 276 0H266Q260 3 130 3Q105 3 80 1Q67 0 40 0Q27 0 27 9Q27 17 53 18Q93 19 100.0 27.5Q107 36 107 85V611Q107 660 102 666Q96 676 47 678Q28 679 28 686Q28 695 40 695L175 693Q190 693 233 694L271 695Q287 695 287 686Q287 678 243 676Q218 675 212.5 667.0Q207 659 207 625V91Q207 34 212 29Q223 18 277 16Q288 16 288 8Z"/>
    <path transform="translate(1482.24 0)" d="M555 79Q555 53 552 -7H541Q535 -7 512.0 -5.0Q489 -3 460 -3L44 0Q27 0 27 9Q27 16 54 18Q92 20 99.5 26.5Q107 33 107 64V626Q107 663 99.5 669.0Q92 675 46 675Q27 675 27 686Q27 695 39 695H48Q81 692 179 692Q188 692 214.0 693.5Q240 695 257 695H268Q286 695 286 685Q286 679 280.5 677.5Q275 676 246.0 675.0Q217 674 211.5 665.5Q206 657 206 613V23Q233 22 281 22Q398 22 446.0 34.0Q494 46 511.0 79.0Q528 112 531 168Q532 181 543 181Q556 181 555 166L554 141Q554 139 554 132Q555 125 555 118Z"/>
    <path transform="translate(2074.32 0)" d="M678 343Q678 194 588.5 91.0Q499 -12 369 -12Q231 -12 137.0 92.5Q43 197 43 350Q43 506 133.5 605.5Q224 705 365 705Q498 705 588.0 601.0Q678 497 678 343ZM566 338Q566 521 491 623Q444 687 360 687Q280 687 236 638Q155 548 155 345Q155 184 211.5 95.0Q268 6 370 6Q465 6 513 90Q566 183 566 338Z"/>
  </g>
  <g transform="translate(346.379 445.000) scale(0.062678 -0.062678)" fill="#2563EB">
    <path d="M647 7Q647 -2 632 -2Q622 -2 614 -1L487 1L360 -1Q353 -2 345 -2Q325 -2 325 8Q325 19 352 19Q440 20 440 37Q440 38 438 45L430 72L425 86Q416 117 381 223H167Q107 63 107 39Q107 25 119 22Q122 21 169 18Q198 17 198 8Q198 -2 172 -2Q126 -2 65 2Q50 3 34 3Q18 3 3 1Q-5 0 -10 0Q-24 0 -24 9Q-24 18 7.5 19.0Q39 20 53.0 28.5Q67 37 75 61Q204 429 285 652Q287 664 293 679L298 697Q301 708 306 708Q309 708 311 702Q324 663 370 539Q406 442 549 52Q557 30 569.5 24.0Q582 18 621 17Q647 16 647 7ZM375 246Q359 291 322 395L274 532Q232 422 173 246Z"/>
    <path transform="translate(840.6800000000001 0)" d="M288 8Q288 0 276 0H266Q260 3 130 3Q105 3 80 1Q67 0 40 0Q27 0 27 9Q27 17 53 18Q93 19 100.0 27.5Q107 36 107 85V611Q107 660 102 666Q96 676 47 678Q28 679 28 686Q28 695 40 695L175 693Q190 693 233 694L271 695Q287 695 287 686Q287 678 243 676Q218 675 212.5 667.0Q207 659 207 625V91Q207 34 212 29Q223 18 277 16Q288 16 288 8Z"/>
    <path transform="translate(1818.0400000000002 0)" d="M498 528Q498 431 415 377Q363 343 283 343Q249 343 206 350V66Q206 43 208 37Q213 23 230 20Q259 16 286 16Q297 16 297 9Q297 -1 283 -1Q277 -1 273 0Q218 -1 66 -1H53Q23 -1 23 9Q23 16 44 16Q91 16 98 25Q106 29 107 45V635Q107 666 90 673Q80 677 55 677H45Q42 676 38 676Q23 676 23 685Q23 695 51 695H271Q385 695 438 655Q498 610 498 528ZM393 526Q393 676 267 676Q225 676 212 662Q206 656 206 631V365Q214 364 224 364Q290 364 336 393Q393 429 393 526Z"/>
    <path transform="translate(2560.7200000000003 0)" d="M647 7Q647 -2 632 -2Q622 -2 614 -1L487 1L360 -1Q353 -2 345 -2Q325 -2 325 8Q325 19 352 19Q440 20 440 37Q440 38 438 45L430 72L425 86Q416 117 381 223H167Q107 63 107 39Q107 25 119 22Q122 21 169 18Q198 17 198 8Q198 -2 172 -2Q126 -2 65 2Q50 3 34 3Q18 3 3 1Q-5 0 -10 0Q-24 0 -24 9Q-24 18 7.5 19.0Q39 20 53.0 28.5Q67 37 75 61Q204 429 285 652Q287 664 293 679L298 697Q301 708 306 708Q309 708 311 702Q324 663 370 539Q406 442 549 52Q557 30 569.5 24.0Q582 18 621 17Q647 16 647 7ZM375 246Q359 291 322 395L274 532Q232 422 173 246Z"/>
    <path transform="translate(3401.4000000000005 0)" d="M594 30Q594 -12 524 -12Q446 -12 402 53Q383 81 377.5 107.0Q372 133 361 239Q355 303 320.0 329.5Q285 356 206 358V43Q206 23 238 18Q247 17 284 16Q297 16 297 8Q297 -1 280 -1H268Q259 0 181 0Q166 0 130 -1Q95 -1 84 -1H45Q23 -1 23 8Q23 15 52 16Q99 17 103 28Q107 33 107 67V619Q107 659 98.5 667.0Q90 675 47 676Q22 676 22 685Q22 695 38 695Q41 695 47 694L180 691Q200 691 236 692Q276 694 292 694Q385 694 439.5 652.5Q494 611 494 540Q494 470 438.0 424.5Q382 379 286 371Q277 370 276 368Q276 364 286 364Q391 346 430.5 290.5Q470 235 483 90Q491 8 539 8Q554 8 554 14Q554 15 553 16Q548 27 548 34Q548 55 570 55Q594 55 594 30ZM387 531Q387 674 263 674Q230 674 218.0 665.0Q206 656 206 633V379Q302 378 344.5 414.0Q387 450 387 531Z"/>
    <path transform="translate(4228.080000000001 0)" d="M571 517Q571 504 559 504Q547 504 542 530Q540 548 538 566Q531 602 515 627Q494 660 446 669Q415 675 396 674Q349 672 339 671V68Q339 32 358 23Q368 18 414 17Q426 16 426 8Q426 -1 410 -1Q402 -1 396 0Q336 2 311 2Q278 2 249.0 1.0Q220 0 175 0Q152 0 152 8Q152 17 195 18Q226 18 235 31Q240 39 240 72V671Q141 670 117 661Q54 638 43 538Q40 508 29 508Q17 508 17 529Q17 540 18 551L20 574Q23 620 29 695H74L278 692Q314 691 390 693L556 696Q558 640 569 530Q569 527 570.0 522.5Q571 518 571 517Z"/>
    <path transform="translate(5052.760000000001 0)" d="M642 685Q642 675 617 676L595 677H577Q561 677 558.0 671.5Q555 666 555 638V62Q555 9 554.0 0.0Q553 -9 548 -9Q542 -9 534 2L406 189Q295 352 136 596L137 38Q138 25 152.0 21.5Q166 18 219 17Q232 17 232 9Q232 -1 206 -1Q197 -1 149 2Q133 3 118 3Q119 3 100.5 1.0Q82 -1 44 -1H34Q11 -1 11 8Q11 17 31 17Q90 18 99.5 24.5Q109 31 109 67V560Q109 643 75 664Q59 674 18 674Q-8 674 -8 684Q-8 693 7 693Q27 693 58.0 692.0Q89 691 91 691Q94 691 119 692Q152 692 183 693L528 180V625Q528 656 527.0 662.5Q526 669 519.0 672.5Q512 676 471 676Q435 676 435 685Q435 695 459 695H494Q507 695 522 695Q538 694 541 694Q542 694 559 695Q575 695 589 695H620Q642 695 642 685Z"/>
    <path transform="translate(5947.440000000001 0)" d="M562 162Q562 158 560.0 113.0Q558 68 558 27V-6Q460 -1 170 -1Q135 -1 101 -2Q67 -2 55 -2H45Q26 -2 26 7Q26 13 32 14Q35 14 70 17Q96 19 101.5 28.0Q107 37 107 75V637Q107 666 98.5 671.5Q90 677 44 677Q28 677 28 686Q28 695 50 695L221 694Q230 694 334 695Q438 695 474 695Q504 695 529 699Q531 656 538 580L542 537Q543 532 543 524Q543 514 534 514Q523 514 518 539Q499 629 456 653Q424 671 288 671H206V378H230Q342 378 366.5 395.0Q391 412 400 494Q402 515 411 515Q422 515 422 497Q422 479 420.0 444.0Q418 409 418 391Q418 284 422 244Q423 234 423 227Q423 214 412 214Q405 214 402.5 222.5Q400 231 394 278Q386 337 345 351Q327 357 251 357H206V21Q426 21 464 30Q530 45 539 158Q541 183 552 183Q562 183 562 162Z"/>
    <path transform="translate(6768.120000000002 0)" d="M594 30Q594 -12 524 -12Q446 -12 402 53Q383 81 377.5 107.0Q372 133 361 239Q355 303 320.0 329.5Q285 356 206 358V43Q206 23 238 18Q247 17 284 16Q297 16 297 8Q297 -1 280 -1H268Q259 0 181 0Q166 0 130 -1Q95 -1 84 -1H45Q23 -1 23 8Q23 15 52 16Q99 17 103 28Q107 33 107 67V619Q107 659 98.5 667.0Q90 675 47 676Q22 676 22 685Q22 695 38 695Q41 695 47 694L180 691Q200 691 236 692Q276 694 292 694Q385 694 439.5 652.5Q494 611 494 540Q494 470 438.0 424.5Q382 379 286 371Q277 370 276 368Q276 364 286 364Q391 346 430.5 290.5Q470 235 483 90Q491 8 539 8Q554 8 554 14Q554 15 553 16Q548 27 548 34Q548 55 570 55Q594 55 594 30ZM387 531Q387 674 263 674Q230 674 218.0 665.0Q206 656 206 633V379Q302 378 344.5 414.0Q387 450 387 531Z"/>
    <path transform="translate(7594.800000000002 0)" d="M469 195Q469 109 403.5 48.5Q338 -12 246 -12Q192 -12 117 21Q97 30 87 30Q75 30 72 1Q71 -14 59 -14Q49 -14 49 -2Q49 6 50 10Q58 71 58 123Q58 133 56 179Q55 185 55 195Q55 210 67 210Q77 210 81 186Q107 8 250 8Q311 8 344.5 42.5Q378 77 378 140Q378 196 345.5 235.5Q313 275 234 314Q139 361 102.0 405.0Q65 449 65 514Q65 597 118.5 651.0Q172 705 254 705Q288 705 348 682Q369 674 379 674Q390 674 393.5 678.0Q397 682 400 699Q402 709 411 709Q421 709 421 697Q421 689 420 685Q417 661 417 627Q417 579 422 551L423 535Q424 524 414 524Q403 524 399 547Q388 606 347.0 645.5Q306 685 255 685Q205 685 175.5 653.0Q146 621 146 566Q146 502 189 463Q213 441 293 401Q387 354 428.0 305.5Q469 257 469 195Z"/>
  </g>
</svg>
